<svg width="20" height="16" viewBox="0 0 20 16" fill="none" xmlns="http://www.w3.org/2000/svg">
<path d="M18 0H2C0.89 0 0 0.9 0 2V14C0 15.1 0.89 16 2 16H18C19.1 16 20 15.1 20 14V2C20 0.9 19.11 0 18 0ZM18 14H2V4H18V14ZM10 12C10 11.45 10.45 11 11 11H15C15.55 11 16 11.45 16 12C16 12.55 15.55 13 15 13H11C10.45 13 10 12.55 10 12ZM4.79 5.71C5.18 5.32 5.81 5.32 6.2 5.71L8.79 8.3C9.18 8.69 9.18 9.32 8.79 9.71L6.2 12.3C5.81 12.69 5.18 12.69 4.79 12.3C4.6973 12.2075 4.62375 12.0976 4.57357 11.9766C4.52339 11.8557 4.49756 11.726 4.49756 11.595C4.49756 11.464 4.52339 11.3343 4.57357 11.2134C4.62375 11.0924 4.6973 10.9825 4.79 10.89L6.67 9L4.79 7.12C4.6973 7.02749 4.62375 6.9176 4.57357 6.79662C4.52339 6.67565 4.49756 6.54597 4.49756 6.415C4.49756 6.28403 4.52339 6.15435 4.57357 6.03338C4.62375 5.9124 4.6973 5.80251 4.79 5.71Z" fill="#B5E3F1"/>
</svg>
